<svg xmlns="http://www.w3.org/2000/svg" width="46.955" height="46.955" viewBox="0 0 46.955 46.955">
  <g id="Group_1453" data-name="Group 1453" transform="translate(-1700.465 -6321.022)">
    <circle id="Ellipse_311" data-name="Ellipse 311" cx="23.477" cy="23.477" r="23.477" transform="translate(1700.465 6321.022)"/>
    <path id="Icon_awesome-twitter" data-name="Icon awesome-twitter" d="M23.356,8.65c.017.231.017.463.017.694a15.076,15.076,0,0,1-15.18,15.18A15.077,15.077,0,0,1,0,22.129a11.037,11.037,0,0,0,1.288.066,10.685,10.685,0,0,0,6.624-2.279,5.345,5.345,0,0,1-4.988-3.7,6.728,6.728,0,0,0,1.008.083,5.643,5.643,0,0,0,1.4-.182A5.336,5.336,0,0,1,1.057,10.88v-.066a5.373,5.373,0,0,0,2.412.677A5.343,5.343,0,0,1,1.817,4.355a15.165,15.165,0,0,0,11,5.583,6.023,6.023,0,0,1-.132-1.222,5.34,5.34,0,0,1,9.234-3.65,10.5,10.5,0,0,0,3.386-1.288,5.321,5.321,0,0,1-2.346,2.94,10.7,10.7,0,0,0,3.072-.826A11.469,11.469,0,0,1,23.356,8.65Z" transform="matrix(0.966, 0.259, -0.259, 0.966, 1714.981, 6327.429)" fill="#fff"/>
  </g>
</svg>
